<svg xmlns="http://www.w3.org/2000/svg" viewBox="0 0 128 128" width="128" height="128">
  <title>barrier_bot</title>
  <rect x="33" y="34" width="62" height="66" rx="14" fill="#64748b"/>
  <rect x="51" y="20" width="26" height="18" rx="6" fill="#94a3b8"/>
  <circle cx="53" cy="61" r="6" fill="#dbeafe"/>
  <circle cx="75" cy="61" r="6" fill="#dbeafe"/>
  <path d="M53 82 H75" stroke="#334155" stroke-width="4" stroke-linecap="round"/>
  <path d="M64 18 C96 28 111 49 111 73 C111 97 94 113 64 121 C34 113 17 97 17 73 C17 49 32 28 64 18 Z" fill="none" stroke="#38bdf8" stroke-width="6" opacity=".78"/>
  <path d="M64 30 C87 38 99 53 99 73 C99 92 86 105 64 112 C42 105 29 92 29 73 C29 53 41 38 64 30 Z" fill="none" stroke="#bae6fd" stroke-width="4" opacity=".74"/>
  <path d="M20 74 H8 M108 74 H120" stroke="#38bdf8" stroke-width="5" stroke-linecap="round"/>
</svg>
