<svg xmlns="http://www.w3.org/2000/svg" viewBox="0 0 100 100">
  <ellipse cx="32" cy="38" rx="15" ry="8" fill="rgba(178, 235, 242, 0.7)" transform="rotate(-30 32 38)"/>
  <ellipse cx="68" cy="38" rx="15" ry="8" fill="rgba(178, 235, 242, 0.7)" transform="rotate(30 68 38)"/>
  <ellipse cx="50" cy="56" rx="18" ry="22" fill="#ffeb3b"/>
  <path d="M34,46 Q50,49 66,46 M32,56 Q50,59 68,56 M34,66 Q50,69 66,66" stroke="#212121" stroke-width="5" fill="none"/>
  <polygon points="50,78 46,88 54,88" fill="#212121"/>
  <circle cx="50" cy="34" r="11" fill="#ffeb3b"/>
  <circle cx="46" cy="32" r="2" fill="#212121"/>
  <circle cx="54" cy="32" r="2" fill="#212121"/>
  <path d="M44,24 Q40,12 44,14 M56,24 Q60,12 56,14" stroke="#212121" stroke-width="2" fill="none"/>
</svg>
