<svg xmlns="http://www.w3.org/2000/svg" viewBox="0 0 160 160">
  <defs><linearGradient id="g" x1="0" x2="1" y1="0" y2="1"><stop stop-color="#38d9c6"/><stop offset="1" stop-color="#146c94"/></linearGradient></defs>
  <path d="M28 112c26-16 75-18 104 0-20 18-82 20-104 0Z" fill="#0ea5a8" opacity=".35"/>
  <path d="M70 28c22 5 40 25 39 51-1 34-23 50-46 54 8-18 8-35-4-52-9-14-5-40 11-53Z" fill="url(#g)"/>
  <path d="M87 45c18 12 26 28 20 48 18-6 28-17 34-32-17 3-31-1-54-16Z" fill="#7dd3fc"/>
  <path d="M50 115 121 44" stroke="#e0f2fe" stroke-width="8" stroke-linecap="round"/>
  <path d="M113 36l17 17M57 107l15 15" stroke="#facc15" stroke-width="6" stroke-linecap="round"/>
  <circle cx="80" cy="58" r="7" fill="#031b2b"/>
  <path d="M41 38c11 4 20 12 24 24-18-2-30-8-36-18 3-3 7-5 12-6Z" fill="#fb7185"/>
  <path d="M106 116c9-14 20-22 34-24-2 15-10 26-24 34-4-2-8-5-10-10Z" fill="#f472b6"/>
</svg>
