<svg xmlns="http://www.w3.org/2000/svg" viewBox="0 0 128 128" width="128" height="128">
  <path d="M47 45 C37 50 31 61 32 75 C34 95 45 114 64 116 C83 114 94 95 96 75 C97 61 91 50 81 45 C78 33 70 24 64 18 C58 24 50 33 47 45 Z" fill="#8b5a2b"/>
  <path d="M42 38 C30 34 25 23 31 15 C43 16 50 23 51 35 Z" fill="#2ecc71"/>
  <path d="M86 38 C98 34 103 23 97 15 C85 16 78 23 77 35 Z" fill="#27ae60"/>
  <path d="M57 25 C54 13 60 6 64 4 C68 6 74 13 71 25 Z" fill="#58d68d"/>
  <path d="M40 73 C48 70 54 72 58 79" stroke="#5d3a1a" stroke-width="5" fill="none" stroke-linecap="round"/>
  <path d="M88 73 C80 70 74 72 70 79" stroke="#5d3a1a" stroke-width="5" fill="none" stroke-linecap="round"/>
  <circle cx="53" cy="67" r="5" fill="#fef3c7"/>
  <circle cx="75" cy="67" r="5" fill="#fef3c7"/>
  <path d="M55 89 Q64 96 73 89" stroke="#fef3c7" stroke-width="4" fill="none" stroke-linecap="round"/>
  <path d="M49 114 L38 124" stroke="#6b3f1d" stroke-width="7" stroke-linecap="round"/>
  <path d="M79 114 L90 124" stroke="#6b3f1d" stroke-width="7" stroke-linecap="round"/>
</svg>
